<svg xmlns="http://www.w3.org/2000/svg" xmlns:xlink="http://www.w3.org/1999/xlink" width="800" zoomAndPan="magnify" viewBox="0 0 600 225" height="300" preserveAspectRatio="xMidYMid meet" version="1.0"><defs><g/><clipPath id="7ddebd017d"><path d="M 295 45.6875 L 305 45.6875 L 305 63.6875 L 295 63.6875 Z M 295 45.6875 " clip-rule="nonzero"/></clipPath><clipPath id="8953a67fb5"><path d="M 156.566406 159 L 276 159 L 276 164 L 156.566406 164 Z M 156.566406 159 " clip-rule="nonzero"/></clipPath><clipPath id="0a5e99e2a0"><path d="M 291 145.023438 L 309 145.023438 L 309 163 L 291 163 Z M 291 145.023438 " clip-rule="nonzero"/></clipPath><clipPath id="e4469f099e"><path d="M 156.566406 153 L 300 153 L 300 175.023438 L 156.566406 175.023438 Z M 156.566406 153 " clip-rule="nonzero"/></clipPath><clipPath id="8adef939e4"><path d="M 275 155 L 289 155 L 289 175.023438 L 275 175.023438 Z M 275 155 " clip-rule="nonzero"/></clipPath><clipPath id="5e21b07b80"><path d="M 324 159 L 443.066406 159 L 443.066406 164 L 324 164 Z M 324 159 " clip-rule="nonzero"/></clipPath><clipPath id="50f444e62b"><path d="M 299 153 L 443.066406 153 L 443.066406 175.023438 L 299 175.023438 Z M 299 153 " clip-rule="nonzero"/></clipPath></defs><g fill="#ffffff" fill-opacity="1"><g transform="translate(33.82494, 135.136056)"><g><path d="M 46.625 1.328125 C 31.382812 1.328125 20.171875 -1.804688 12.984375 -8.078125 C 6.617188 -13.609375 3.4375 -21.171875 3.4375 -30.765625 C 3.4375 -40.359375 6.617188 -47.9375 12.984375 -53.5 C 20.171875 -59.738281 31.382812 -62.859375 46.625 -62.859375 C 55.5625 -62.859375 62.953125 -61.832031 68.796875 -59.78125 C 74.640625 -57.738281 79.175781 -54.941406 82.40625 -51.390625 C 85.644531 -47.835938 87.796875 -43.769531 88.859375 -39.1875 L 61.65625 -39.1875 C 58.9375 -43.96875 53.925781 -46.359375 46.625 -46.359375 C 40.375 -46.359375 35.773438 -44.554688 32.828125 -40.953125 C 30.484375 -38.085938 29.3125 -34.691406 29.3125 -30.765625 C 29.3125 -26.835938 30.484375 -23.441406 32.828125 -20.578125 C 35.773438 -16.972656 40.375 -15.171875 46.625 -15.171875 C 53.925781 -15.171875 58.9375 -17.578125 61.65625 -22.390625 L 88.859375 -22.390625 C 87.796875 -17.773438 85.644531 -13.691406 82.40625 -10.140625 C 79.175781 -6.585938 74.640625 -3.785156 68.796875 -1.734375 C 62.953125 0.304688 55.5625 1.328125 46.625 1.328125 Z M 46.625 1.328125 "/></g></g></g><g fill="#ffffff" fill-opacity="1"><g transform="translate(126.117714, 135.136056)"><g><path d="M 46.625 1.328125 C 31.382812 1.328125 20.171875 -1.804688 12.984375 -8.078125 C 6.617188 -13.640625 3.4375 -21.21875 3.4375 -30.8125 C 3.4375 -40.375 6.617188 -47.9375 12.984375 -53.5 C 20.171875 -59.769531 31.382812 -62.90625 46.625 -62.90625 C 61.863281 -62.90625 73.078125 -59.769531 80.265625 -53.5 C 86.628906 -47.9375 89.8125 -40.375 89.8125 -30.8125 C 89.8125 -21.21875 86.628906 -13.640625 80.265625 -8.078125 C 73.078125 -1.804688 61.863281 1.328125 46.625 1.328125 Z M 46.625 -15.21875 C 52.863281 -15.21875 57.445312 -17.003906 60.375 -20.578125 C 62.71875 -23.472656 63.890625 -26.882812 63.890625 -30.8125 C 63.890625 -34.738281 62.71875 -38.132812 60.375 -41 C 57.445312 -44.601562 52.863281 -46.40625 46.625 -46.40625 C 40.375 -46.40625 35.773438 -44.601562 32.828125 -41 C 30.484375 -38.132812 29.3125 -34.738281 29.3125 -30.8125 C 29.3125 -26.882812 30.484375 -23.472656 32.828125 -20.578125 C 35.773438 -17.003906 40.375 -15.21875 46.625 -15.21875 Z M 46.625 -15.21875 "/></g></g></g><g fill="#ffffff" fill-opacity="1"><g transform="translate(219.355759, 135.136056)"><g><path d="M 81.125 0 L 6.875 0 L 6.875 -61.65625 L 77.734375 -61.65625 L 77.734375 -46.40625 L 32.75 -46.40625 L 32.75 -36.734375 L 70.765625 -36.734375 L 70.765625 -24.875 L 32.75 -24.875 L 32.75 -15.25 L 81.125 -15.25 Z M 81.125 0 "/></g></g></g><g fill="#ffffff" fill-opacity="1"><g transform="translate(303.914513, 135.136056)"><g><path d="M 78.84375 0 L 6.875 0 L 6.875 -61.65625 L 32.75 -61.65625 L 32.75 -15.25 L 78.84375 -15.25 Z M 78.84375 0 "/></g></g></g><g fill="#ffffff" fill-opacity="1"><g transform="translate(384.477345, 135.136056)"><g><path d="M 78.84375 0 L 6.875 0 L 6.875 -61.65625 L 32.75 -61.65625 L 32.75 -15.25 L 78.84375 -15.25 Z M 78.84375 0 "/></g></g></g><g fill="#ffffff" fill-opacity="1"><g transform="translate(465.040177, 135.136056)"><g><path d="M 46.625 1.328125 C 31.382812 1.328125 20.171875 -1.804688 12.984375 -8.078125 C 6.617188 -13.640625 3.4375 -21.21875 3.4375 -30.8125 C 3.4375 -40.375 6.617188 -47.9375 12.984375 -53.5 C 20.171875 -59.769531 31.382812 -62.90625 46.625 -62.90625 C 61.863281 -62.90625 73.078125 -59.769531 80.265625 -53.5 C 86.628906 -47.9375 89.8125 -40.375 89.8125 -30.8125 C 89.8125 -21.21875 86.628906 -13.640625 80.265625 -8.078125 C 73.078125 -1.804688 61.863281 1.328125 46.625 1.328125 Z M 46.625 -15.21875 C 52.863281 -15.21875 57.445312 -17.003906 60.375 -20.578125 C 62.71875 -23.472656 63.890625 -26.882812 63.890625 -30.8125 C 63.890625 -34.738281 62.71875 -38.132812 60.375 -41 C 57.445312 -44.601562 52.863281 -46.40625 46.625 -46.40625 C 40.375 -46.40625 35.773438 -44.601562 32.828125 -41 C 30.484375 -38.132812 29.3125 -34.738281 29.3125 -30.8125 C 29.3125 -26.882812 30.484375 -23.472656 32.828125 -20.578125 C 35.773438 -17.003906 40.375 -15.21875 46.625 -15.21875 Z M 46.625 -15.21875 "/></g></g></g><path fill="#ffffff" d="M 315.847656 55.976562 L 419.050781 54.6875 L 315.847656 53.398438 C 313.207031 51.632812 310.550781 50.339844 308.703125 49.980469 C 307.882812 49.824219 307.167969 49.839844 306.613281 50.0625 C 305.875 50.359375 305.4375 50.929688 305.390625 51.820312 C 305.351562 52.53125 305.613281 53.476562 306.253906 54.6875 C 305.613281 55.894531 305.351562 56.839844 305.390625 57.550781 C 305.4375 58.441406 305.875 59.011719 306.613281 59.308594 C 307.167969 59.535156 307.882812 59.550781 308.703125 59.390625 C 310.550781 59.035156 313.210938 57.742188 315.84375 55.976562 Z M 307.285156 51.925781 C 307.257812 52.371094 307.523438 53.117188 308.160156 54.214844 L 308.429688 54.6875 L 308.160156 55.15625 C 307.523438 56.253906 307.257812 57 307.285156 57.445312 C 307.289062 57.511719 307.300781 57.542969 307.320312 57.550781 C 307.519531 57.632812 307.878906 57.621094 308.351562 57.527344 C 309.863281 57.234375 312.078125 56.167969 314.359375 54.6875 C 312.078125 53.203125 309.863281 52.136719 308.351562 51.84375 C 307.878906 51.753906 307.519531 51.738281 307.320312 51.820312 C 307.296875 51.828125 307.289062 51.863281 307.28125 51.925781 Z M 307.285156 51.925781 " fill-opacity="1" fill-rule="evenodd"/><path fill="#ffffff" d="M 284.148438 55.976562 L 180.945312 54.6875 L 284.148438 53.398438 C 286.785156 51.632812 289.445312 50.339844 291.292969 49.980469 C 292.113281 49.824219 292.828125 49.839844 293.382812 50.0625 C 294.121094 50.359375 294.558594 50.929688 294.605469 51.820312 C 294.644531 52.53125 294.382812 53.476562 293.738281 54.6875 C 294.382812 55.894531 294.644531 56.839844 294.605469 57.550781 C 294.558594 58.441406 294.121094 59.011719 293.382812 59.308594 C 292.828125 59.535156 292.113281 59.550781 291.292969 59.390625 C 289.449219 59.035156 286.789062 57.738281 284.152344 55.976562 Z M 292.714844 51.925781 C 292.742188 52.371094 292.476562 53.117188 291.839844 54.214844 L 291.570312 54.6875 L 291.839844 55.15625 C 292.476562 56.253906 292.742188 57 292.714844 57.445312 C 292.710938 57.511719 292.699219 57.542969 292.679688 57.550781 C 292.480469 57.632812 292.125 57.621094 291.652344 57.527344 C 290.136719 57.234375 287.925781 56.167969 285.640625 54.6875 C 287.925781 53.203125 290.136719 52.136719 291.652344 51.84375 C 292.125 51.753906 292.480469 51.738281 292.679688 51.820312 C 292.703125 51.828125 292.71875 51.863281 292.722656 51.925781 Z M 292.714844 51.925781 " fill-opacity="1" fill-rule="evenodd"/><g clip-path="url(#7ddebd017d)"><path fill="#ffffff" d="M 304.632812 54.6875 C 302.5 55.992188 301.152344 59.269531 300.351562 62.265625 C 300.226562 62.730469 300.109375 63.203125 300.003906 63.6875 C 299.894531 63.203125 299.777344 62.730469 299.652344 62.265625 C 298.851562 59.269531 297.503906 55.992188 295.371094 54.6875 C 297.503906 53.378906 298.851562 50.101562 299.652344 47.105469 C 299.777344 46.640625 299.894531 46.167969 300.003906 45.6875 C 300.109375 46.167969 300.226562 46.640625 300.351562 47.105469 C 301.144531 50.105469 302.496094 53.378906 304.632812 54.6875 Z M 304.632812 54.6875 " fill-opacity="1" fill-rule="evenodd"/></g><g clip-path="url(#8953a67fb5)"><path fill="#ffffff" d="M 274.988281 163.871094 L 156.566406 159.023438 L 213.300781 160.171875 L 275.144531 162.699219 C 275.078125 163.085938 275.03125 163.476562 274.988281 163.871094 Z M 274.988281 163.871094 " fill-opacity="1" fill-rule="nonzero"/></g><g clip-path="url(#0a5e99e2a0)"><path fill="#ffffff" d="M 299.996094 145.082031 C 299.03125 147.480469 298.457031 150.527344 298.457031 153.84375 C 298.457031 154.59375 298.484375 155.328125 298.542969 156.046875 C 298.089844 155.3125 297.527344 154.632812 296.851562 154.035156 C 295.28125 152.730469 293.332031 152.023438 291.285156 152.367188 C 292.921875 153.476562 294.386719 154.648438 295.75 156.085938 C 295.984375 156.355469 296.222656 156.632812 296.457031 156.910156 C 297.324219 158.015625 298.058594 159.15625 298.734375 160.386719 L 299.941406 162.46875 L 299.996094 162.601562 L 300.046875 162.472656 L 301.253906 160.386719 C 301.933594 159.15625 302.667969 158.015625 303.535156 156.910156 C 303.769531 156.632812 304.003906 156.355469 304.242188 156.085938 C 305.601562 154.648438 307.066406 153.476562 308.703125 152.367188 C 306.65625 152.023438 304.707031 152.730469 303.136719 154.035156 C 302.464844 154.632812 301.902344 155.3125 301.449219 156.042969 C 301.503906 155.328125 301.535156 154.589844 301.535156 153.84375 C 301.535156 150.527344 300.957031 147.480469 299.992188 145.082031 Z M 299.996094 145.082031 " fill-opacity="1" fill-rule="evenodd"/></g><g clip-path="url(#e4469f099e)"><path fill="#ffffff" d="M 299.996094 169.582031 C 298.554688 158.417969 284.242188 150.117188 278.617188 159.855469 C 281.949219 160.488281 284.347656 161.851562 285.933594 163.492188 C 287.507812 165.117188 288.535156 167.300781 288.441406 169.589844 C 288.304688 172.886719 285.804688 175.160156 282.511719 175.082031 C 279.523438 175.011719 277.25 173 276.210938 170.285156 C 275.421875 168.21875 275.183594 165.398438 275.90625 161.730469 L 156.5625 159.253906 L 260.773438 159.253906 C 265.703125 159.253906 271.648438 159.167969 276.417969 159.5625 C 283.105469 147.414062 299.949219 154.664062 299.992188 169.582031 Z M 278.089844 161.996094 C 277.414062 165.285156 277.597656 167.742188 278.265625 169.5 C 279.261719 171.855469 280.957031 173.660156 283.152344 173.894531 C 285.351562 174.132812 286.808594 172.722656 286.71875 170.320312 C 286.648438 168.394531 285.664062 166.480469 284.355469 165.019531 C 283.035156 163.660156 280.992188 162.523438 278.09375 161.996094 Z M 278.089844 161.996094 " fill-opacity="1" fill-rule="nonzero"/></g><g clip-path="url(#8adef939e4)"><path fill="#ffffff" d="M 282.5625 156.179688 C 281.035156 156.835938 279.675781 158.027344 278.617188 159.855469 C 281.953125 160.488281 284.347656 161.851562 285.9375 163.492188 C 287.09375 164.683594 287.953125 166.179688 288.289062 167.796875 L 286.792969 173.472656 C 285.730469 174.523438 284.226562 175.121094 282.511719 175.082031 C 279.527344 175.011719 277.25 173 276.214844 170.285156 C 275.425781 168.21875 275.183594 165.398438 275.90625 161.730469 L 275.417969 161.71875 L 275.996094 159.527344 L 276.421875 159.5625 C 277.390625 157.800781 278.570312 156.453125 279.882812 155.472656 L 282.554688 156.179688 Z M 278.089844 161.996094 C 277.414062 165.285156 277.597656 167.742188 278.265625 169.5 C 279.261719 171.855469 280.957031 173.660156 283.152344 173.894531 C 285.351562 174.132812 286.808594 172.722656 286.71875 170.320312 C 286.648438 168.394531 285.664062 166.480469 284.355469 165.019531 C 283.035156 163.660156 280.992188 162.523438 278.09375 161.996094 Z M 278.089844 161.996094 " fill-opacity="1" fill-rule="nonzero"/></g><g clip-path="url(#5e21b07b80)"><path fill="#ffffff" d="M 325 163.871094 L 443.425781 159.023438 L 386.691406 160.171875 L 324.847656 162.699219 C 324.910156 163.085938 324.964844 163.476562 325 163.871094 Z M 325 163.871094 " fill-opacity="1" fill-rule="nonzero"/></g><g clip-path="url(#50f444e62b)"><path fill="#ffffff" d="M 299.996094 169.582031 C 301.433594 158.417969 315.75 150.117188 321.371094 159.855469 C 318.039062 160.488281 315.644531 161.851562 314.054688 163.492188 C 312.480469 165.117188 311.453125 167.300781 311.546875 169.589844 C 311.6875 172.886719 314.1875 175.160156 317.480469 175.082031 C 320.464844 175.011719 322.742188 173 323.777344 170.285156 C 324.566406 168.21875 324.808594 165.398438 324.085938 161.730469 L 443.425781 159.253906 L 339.21875 159.253906 C 334.285156 159.253906 328.339844 159.167969 323.570312 159.5625 C 316.890625 147.414062 300.042969 154.664062 299.996094 169.582031 Z M 321.90625 161.996094 C 322.578125 165.285156 322.398438 167.742188 321.726562 169.5 C 320.734375 171.855469 319.039062 173.660156 316.84375 173.894531 C 314.644531 174.132812 313.1875 172.722656 313.277344 170.320312 C 313.347656 168.394531 314.332031 166.480469 315.640625 165.019531 C 316.953125 163.660156 319 162.523438 321.902344 161.996094 Z M 321.90625 161.996094 " fill-opacity="1" fill-rule="nonzero"/></g></svg>